# Blender v3.1.2 OBJ File: ''
# www.blender.org
mtllib cone.mtl
o Cone_Cone.001
v 0.000000 -1.000000 -1.000000
v 0.195090 -1.000000 -0.980785
v 0.382683 -1.000000 -0.923880
v 0.555570 -1.000000 -0.831470
v 0.707107 -1.000000 -0.707107
v 0.831470 -1.000000 -0.555570
v 0.923880 -1.000000 -0.382683
v 0.980785 -1.000000 -0.195090
v 1.000000 -1.000000 0.000000
v 0.980785 -1.000000 0.195090
v 0.923880 -1.000000 0.382683
v 0.831470 -1.000000 0.555570
v 0.707107 -1.000000 0.707107
v 0.555570 -1.000000 0.831470
v 0.382683 -1.000000 0.923880
v 0.195090 -1.000000 0.980785
v -0.000000 -1.000000 1.000000
v -0.195090 -1.000000 0.980785
v -0.382683 -1.000000 0.923880
v -0.555570 -1.000000 0.831470
v -0.707107 -1.000000 0.707107
v -0.831469 -1.000000 0.555570
v -0.923880 -1.000000 0.382684
v -0.980785 -1.000000 0.195090
v -1.000000 -1.000000 -0.000000
v -0.980785 -1.000000 -0.195090
v -0.923879 -1.000000 -0.382684
v -0.831470 -1.000000 -0.555570
v -0.707107 -1.000000 -0.707107
v -0.555570 -1.000000 -0.831470
v -0.382683 -1.000000 -0.923880
v -0.195090 -1.000000 -0.980785
v 0.000000 1.000000 0.000000
vt 0.253288 0.945588
vt 0.326208 0.448511
vt 0.291763 0.947592
vt 0.326208 0.944697
vt 0.774718 0.002895
vt 0.774718 0.499082
vt 0.740274 0.000000
vt 0.701799 0.002004
vt 0.660772 0.008830
vt 0.618770 0.020216
vt 0.577407 0.035724
vt 0.538273 0.054758
vt 0.502871 0.076586
vt 0.472562 0.100371
vt 0.448511 0.125197
vt 0.722498 0.499731
vt 0.722498 1.000000
vt 0.683976 0.499082
vt 0.642577 0.503067
vt 0.599891 0.511533
vt 0.557558 0.524157
vt 0.517206 0.540451
vt 0.480385 0.559790
vt 0.448511 0.581431
vt 0.996485 0.499731
vt 0.996485 1.000000
vt 0.957963 0.499082
vt 0.916564 0.503067
vt 0.873878 0.511533
vt 0.831545 0.524156
vt 0.791193 0.540451
vt 0.754373 0.559790
vt 0.722498 0.581431
vt 0.000000 0.822395
vt 0.024051 0.847222
vt 0.054360 0.871006
vt 0.089762 0.892835
vt 0.128897 0.911868
vt 0.170260 0.927376
vt 0.008618 0.289668
vt 0.000000 0.246343
vt 0.000000 0.202168
vt 0.008618 0.158842
vt 0.025523 0.118031
vt 0.050065 0.081301
vt 0.081301 0.050065
vt 0.118030 0.025523
vt 0.158842 0.008618
vt 0.202168 0.000000
vt 0.246342 0.000000
vt 0.289668 0.008618
vt 0.330480 0.025523
vt 0.367210 0.050065
vt 0.398446 0.081301
vt 0.422988 0.118031
vt 0.439893 0.158842
vt 0.448511 0.202168
vt 0.448511 0.246342
vt 0.439893 0.289668
vt 0.422988 0.330480
vt 0.398446 0.367210
vt 0.367210 0.398446
vt 0.330480 0.422988
vt 0.289668 0.439893
vt 0.246343 0.448511
vt 0.202168 0.448511
vt 0.158843 0.439893
vt 0.118031 0.422988
vt 0.081301 0.398446
vt 0.050065 0.367210
vt 0.025523 0.330480
vt 0.212261 0.938762
vn 0.0878 0.4455 -0.8910
vn 0.2599 0.4455 -0.8567
vn 0.4220 0.4455 -0.7896
vn 0.5680 0.4455 -0.6921
vn 0.6921 0.4455 -0.5680
vn 0.7896 0.4455 -0.4220
vn 0.8567 0.4455 -0.2599
vn 0.8910 0.4455 -0.0878
vn 0.8910 0.4455 0.0878
vn 0.8567 0.4455 0.2599
vn 0.7896 0.4455 0.4220
vn 0.6921 0.4455 0.5680
vn 0.5680 0.4455 0.6921
vn 0.4220 0.4455 0.7896
vn 0.2599 0.4455 0.8567
vn 0.0878 0.4455 0.8910
vn -0.0878 0.4455 0.8910
vn -0.2599 0.4455 0.8567
vn -0.4220 0.4455 0.7896
vn -0.5680 0.4455 0.6921
vn -0.6921 0.4455 0.5680
vn -0.7896 0.4455 0.4220
vn -0.8567 0.4455 0.2599
vn -0.8910 0.4455 0.0878
vn -0.8910 0.4455 -0.0878
vn -0.8567 0.4455 -0.2599
vn -0.7896 0.4455 -0.4220
vn -0.6921 0.4455 -0.5680
vn -0.5680 0.4455 -0.6921
vn -0.4220 0.4455 -0.7896
vn 0.0000 -1.0000 0.0000
vn -0.2599 0.4455 -0.8567
vn -0.0878 0.4455 -0.8910
usemtl Material.001
s off
f 1/1/1 33/2/1 2/3/1
f 2/3/2 33/2/2 3/4/2
f 3/5/3 33/6/3 4/7/3
f 4/7/4 33/6/4 5/8/4
f 5/8/5 33/6/5 6/9/5
f 6/9/6 33/6/6 7/10/6
f 7/10/7 33/6/7 8/11/7
f 8/11/8 33/6/8 9/12/8
f 9/12/9 33/6/9 10/13/9
f 10/13/10 33/6/10 11/14/10
f 11/14/11 33/6/11 12/15/11
f 12/16/12 33/17/12 13/18/12
f 13/18/13 33/17/13 14/19/13
f 14/19/14 33/17/14 15/20/14
f 15/20/15 33/17/15 16/21/15
f 16/21/16 33/17/16 17/22/16
f 17/22/17 33/17/17 18/23/17
f 18/23/18 33/17/18 19/24/18
f 19/25/19 33/26/19 20/27/19
f 20/27/20 33/26/20 21/28/20
f 21/28/21 33/26/21 22/29/21
f 22/29/22 33/26/22 23/30/22
f 23/30/23 33/26/23 24/31/23
f 24/31/24 33/26/24 25/32/24
f 25/32/25 33/26/25 26/33/25
f 26/34/26 33/2/26 27/35/26
f 27/35/27 33/2/27 28/36/27
f 28/36/28 33/2/28 29/37/28
f 29/37/29 33/2/29 30/38/29
f 30/38/30 33/2/30 31/39/30
f 1/40/31 2/41/31 3/42/31 4/43/31 5/44/31 6/45/31 7/46/31 8/47/31 9/48/31 10/49/31 11/50/31 12/51/31 13/52/31 14/53/31 15/54/31 16/55/31 17/56/31 18/57/31 19/58/31 20/59/31 21/60/31 22/61/31 23/62/31 24/63/31 25/64/31 26/65/31 27/66/31 28/67/31 29/68/31 30/69/31 31/70/31 32/71/31
f 31/39/32 33/2/32 32/72/32
f 32/72/33 33/2/33 1/1/33
